<svg width="132" height="10" viewBox="0 0 132 10" fill="none" xmlns="http://www.w3.org/2000/svg">
<path d="M7.164 4.632C7.644 4.784 8.02 5.04 8.292 5.4C8.564 5.752 8.7 6.188 8.7 6.708C8.7 7.444 8.412 8.012 7.836 8.412C7.268 8.804 6.436 9 5.34 9H0.996V0.599999H5.1C6.124 0.599999 6.908 0.796 7.452 1.188C8.004 1.58 8.28 2.112 8.28 2.784C8.28 3.192 8.18 3.556 7.98 3.876C7.788 4.196 7.516 4.448 7.164 4.632ZM2.928 2.064V4.044H4.86C5.34 4.044 5.704 3.96 5.952 3.792C6.2 3.624 6.324 3.376 6.324 3.048C6.324 2.72 6.2 2.476 5.952 2.316C5.704 2.148 5.34 2.064 4.86 2.064H2.928ZM5.196 7.536C5.708 7.536 6.092 7.452 6.348 7.284C6.612 7.116 6.744 6.856 6.744 6.504C6.744 5.808 6.228 5.46 5.196 5.46H2.928V7.536H5.196ZM13.9038 9.144C12.7038 9.144 11.7678 8.812 11.0958 8.148C10.4318 7.484 10.0998 6.536 10.0998 5.304V0.599999H12.0438V5.232C12.0438 6.736 12.6678 7.488 13.9158 7.488C14.5238 7.488 14.9878 7.308 15.3078 6.948C15.6278 6.58 15.7878 6.008 15.7878 5.232V0.599999H17.7078V5.304C17.7078 6.536 17.3718 7.484 16.6998 8.148C16.0358 8.812 15.1038 9.144 13.9038 9.144ZM19.6288 0.599999H21.5728V9H19.6288V0.599999ZM23.5663 0.599999H25.5103V7.416H29.7223V9H23.5663V0.599999ZM30.8085 0.599999H34.6245C35.5365 0.599999 36.3405 0.776 37.0365 1.128C37.7405 1.472 38.2845 1.96 38.6685 2.592C39.0605 3.224 39.2565 3.96 39.2565 4.8C39.2565 5.64 39.0605 6.376 38.6685 7.008C38.2845 7.64 37.7405 8.132 37.0365 8.484C36.3405 8.828 35.5365 9 34.6245 9H30.8085V0.599999ZM34.5285 7.404C35.3685 7.404 36.0365 7.172 36.5325 6.708C37.0365 6.236 37.2885 5.6 37.2885 4.8C37.2885 4 37.0365 3.368 36.5325 2.904C36.0365 2.432 35.3685 2.196 34.5285 2.196H32.7525V7.404H34.5285ZM48.153 6.024V9H46.209V6L42.957 0.599999H45.021L47.265 4.332L49.509 0.599999H51.417L48.153 6.024ZM55.9351 9.144C55.0631 9.144 54.2751 8.956 53.5711 8.58C52.8751 8.204 52.3271 7.688 51.9271 7.032C51.5351 6.368 51.3391 5.624 51.3391 4.8C51.3391 3.976 51.5351 3.236 51.9271 2.58C52.3271 1.916 52.8751 1.396 53.5711 1.02C54.2751 0.644 55.0631 0.456 55.9351 0.456C56.8071 0.456 57.5911 0.644 58.2871 1.02C58.9831 1.396 59.5311 1.916 59.9311 2.58C60.3311 3.236 60.5311 3.976 60.5311 4.8C60.5311 5.624 60.3311 6.368 59.9311 7.032C59.5311 7.688 58.9831 8.204 58.2871 8.58C57.5911 8.956 56.8071 9.144 55.9351 9.144ZM55.9351 7.488C56.4311 7.488 56.8791 7.376 57.2791 7.152C57.6791 6.92 57.9911 6.6 58.2151 6.192C58.4471 5.784 58.5631 5.32 58.5631 4.8C58.5631 4.28 58.4471 3.816 58.2151 3.408C57.9911 3 57.6791 2.684 57.2791 2.46C56.8791 2.228 56.4311 2.112 55.9351 2.112C55.4391 2.112 54.9911 2.228 54.5911 2.46C54.1911 2.684 53.8751 3 53.6431 3.408C53.4191 3.816 53.3071 4.28 53.3071 4.8C53.3071 5.32 53.4191 5.784 53.6431 6.192C53.8751 6.6 54.1911 6.92 54.5911 7.152C54.9911 7.376 55.4391 7.488 55.9351 7.488ZM65.7241 9.144C64.5241 9.144 63.5881 8.812 62.9161 8.148C62.2521 7.484 61.9201 6.536 61.9201 5.304V0.599999H63.8641V5.232C63.8641 6.736 64.4881 7.488 65.7361 7.488C66.3441 7.488 66.8081 7.308 67.1281 6.948C67.4481 6.58 67.6081 6.008 67.6081 5.232V0.599999H69.5281V5.304C69.5281 6.536 69.1921 7.484 68.5201 8.148C67.8561 8.812 66.9241 9.144 65.7241 9.144ZM76.8011 9L75.1811 6.66H75.0851H73.3931V9H71.4491V0.599999H75.0851C75.8291 0.599999 76.4731 0.724 77.0171 0.972C77.5691 1.22 77.9931 1.572 78.2891 2.028C78.5851 2.484 78.7331 3.024 78.7331 3.648C78.7331 4.272 78.5811 4.812 78.2771 5.268C77.9811 5.716 77.5571 6.06 77.0051 6.3L78.8891 9H76.8011ZM76.7651 3.648C76.7651 3.176 76.6131 2.816 76.3091 2.568C76.0051 2.312 75.5611 2.184 74.9771 2.184H73.3931V5.112H74.9771C75.5611 5.112 76.0051 4.984 76.3091 4.728C76.6131 4.472 76.7651 4.112 76.7651 3.648ZM96.3678 0.599999L93.6198 9H91.5318L89.6838 3.312L87.7758 9H85.6998L82.9398 0.599999H84.9558L86.8518 6.504L88.8318 0.599999H90.6318L92.5518 6.552L94.5078 0.599999H96.3678ZM101.416 9.144C100.544 9.144 99.7556 8.956 99.0516 8.58C98.3556 8.204 97.8076 7.688 97.4076 7.032C97.0156 6.368 96.8196 5.624 96.8196 4.8C96.8196 3.976 97.0156 3.236 97.4076 2.58C97.8076 1.916 98.3556 1.396 99.0516 1.02C99.7556 0.644 100.544 0.456 101.416 0.456C102.288 0.456 103.072 0.644 103.768 1.02C104.464 1.396 105.012 1.916 105.412 2.58C105.812 3.236 106.012 3.976 106.012 4.8C106.012 5.624 105.812 6.368 105.412 7.032C105.012 7.688 104.464 8.204 103.768 8.58C103.072 8.956 102.288 9.144 101.416 9.144ZM101.416 7.488C101.912 7.488 102.36 7.376 102.76 7.152C103.16 6.92 103.472 6.6 103.696 6.192C103.928 5.784 104.044 5.32 104.044 4.8C104.044 4.28 103.928 3.816 103.696 3.408C103.472 3 103.16 2.684 102.76 2.46C102.36 2.228 101.912 2.112 101.416 2.112C100.92 2.112 100.472 2.228 100.072 2.46C99.6716 2.684 99.3556 3 99.1236 3.408C98.8996 3.816 98.7876 4.28 98.7876 4.8C98.7876 5.32 98.8996 5.784 99.1236 6.192C99.3556 6.6 99.6716 6.92 100.072 7.152C100.472 7.376 100.92 7.488 101.416 7.488ZM112.825 9L111.205 6.66H111.109H109.417V9H107.473V0.599999H111.109C111.853 0.599999 112.497 0.724 113.041 0.972C113.593 1.22 114.017 1.572 114.313 2.028C114.609 2.484 114.757 3.024 114.757 3.648C114.757 4.272 114.605 4.812 114.301 5.268C114.005 5.716 113.581 6.06 113.029 6.3L114.913 9H112.825ZM112.789 3.648C112.789 3.176 112.637 2.816 112.333 2.568C112.029 2.312 111.585 2.184 111.001 2.184H109.417V5.112H111.001C111.585 5.112 112.029 4.984 112.333 4.728C112.637 4.472 112.789 4.112 112.789 3.648ZM116.297 0.599999H118.241V7.416H122.453V9H116.297V0.599999ZM123.539 0.599999H127.355C128.267 0.599999 129.071 0.776 129.767 1.128C130.471 1.472 131.015 1.96 131.399 2.592C131.791 3.224 131.987 3.96 131.987 4.8C131.987 5.64 131.791 6.376 131.399 7.008C131.015 7.64 130.471 8.132 129.767 8.484C129.071 8.828 128.267 9 127.355 9H123.539V0.599999ZM127.259 7.404C128.099 7.404 128.767 7.172 129.263 6.708C129.767 6.236 130.019 5.6 130.019 4.8C130.019 4 129.767 3.368 129.263 2.904C128.767 2.432 128.099 2.196 127.259 2.196H125.483V7.404H127.259Z" fill="#343045"/>
</svg>
